HIERARCHY
ROOT Hips
{
 OFFSET 0.000000 0.000000 0.000000
 CHANNELS 6 Xposition Yposition Zposition Yrotation Xrotation Zrotation
 JOINT Chest
 {
  OFFSET 0.000000 9.585900 0.002600
  CHANNELS 3 Yrotation Xrotation Zrotation
  JOINT Chest2
  {
   OFFSET 0.000000 9.601200 -0.005300
   CHANNELS 3 Yrotation Xrotation Zrotation
   JOINT Chest3
   {
    OFFSET 0.000000 9.561800 0.000000
    CHANNELS 3 Yrotation Xrotation Zrotation
    JOINT Chest4
    {
     OFFSET 0.000000 9.552100 0.000000
     CHANNELS 3 Yrotation Xrotation Zrotation
     JOINT Neck
     {
      OFFSET 0.000000 14.453000 0.000000
      CHANNELS 3 Yrotation Xrotation Zrotation
      JOINT Head
      {
       OFFSET 0.000000 8.936500 -0.011300
       CHANNELS 3 Yrotation Xrotation Zrotation
       End Site
       {
        OFFSET 0.000000 17.073600 -0.006000
       }
      }
     }
     JOINT RightCollar
     {
      OFFSET -2.921100 9.558500 0.000000
      CHANNELS 3 Yrotation Xrotation Zrotation
      JOINT RightShoulder
      {
       OFFSET -13.519700 0.000000 0.000000
       CHANNELS 3 Yrotation Xrotation Zrotation
       JOINT RightElbow
       {
        OFFSET 0.000000 -29.696600 0.000000
        CHANNELS 3 Yrotation Xrotation Zrotation
        JOINT RightWrist
        {
         OFFSET 0.000000 -24.004700 0.000000
         CHANNELS 3 Yrotation Xrotation Zrotation
         End Site
         {
          OFFSET 0.000000 -17.728500 0.000000
         }
        }
       }
      }
     }
     JOINT LeftCollar
     {
      OFFSET 2.921100 9.558500 0.000000
      CHANNELS 3 Yrotation Xrotation Zrotation
      JOINT LeftShoulder
      {
       OFFSET 13.519700 0.000000 0.000000
       CHANNELS 3 Yrotation Xrotation Zrotation
       JOINT LeftElbow
       {
        OFFSET 0.000000 -29.696600 0.000000
        CHANNELS 3 Yrotation Xrotation Zrotation
        JOINT LeftWrist
        {
         OFFSET 0.000000 -24.004700 0.000000
         CHANNELS 3 Yrotation Xrotation Zrotation
         End Site
         {
          OFFSET 0.000000 -17.728500 0.000000
         }
        }
       }
      }
     }
    }
   }
  }
 }
 JOINT RightHip
 {
  OFFSET -7.771700 -0.012900 -0.001300
  CHANNELS 3 Yrotation Xrotation Zrotation
  JOINT RightKnee
  {
   OFFSET 0.000000 -40.869800 0.001200
   CHANNELS 3 Yrotation Xrotation Zrotation
   JOINT RightAnkle
   {
    OFFSET 0.000000 -39.717900 0.002100
    CHANNELS 3 Yrotation Xrotation Zrotation
    JOINT RightToe
    {
     OFFSET 0.000000 -4.965400 11.033500
     CHANNELS 3 Yrotation Xrotation Zrotation
     End Site
     {
      OFFSET 0.000000 -1.423100 5.872300
     }
    }
   }
  }
 }
 JOINT LeftHip
 {
  OFFSET 7.771700 -0.012900 -0.001300
  CHANNELS 3 Yrotation Xrotation Zrotation
  JOINT LeftKnee
  {
   OFFSET 0.000000 -40.869800 0.001200
   CHANNELS 3 Yrotation Xrotation Zrotation
   JOINT LeftAnkle
   {
    OFFSET 0.000000 -39.717900 0.002100
    CHANNELS 3 Yrotation Xrotation Zrotation
    JOINT LeftToe
    {
     OFFSET 0.000000 -4.965400 11.033500
     CHANNELS 3 Yrotation Xrotation Zrotation
     End Site
     {
      OFFSET 0.000000 -1.423100 5.872300
     }
    }
   }
  }
 }
}
MOTION
Frames: 8
Frame Time: 0.008333
0.000000 85.388000 0.000000 0.000000 -5.767877 0.000000 0.000000 11.653817 0.000000 0.000000 -5.885947 0.000000 0.000000 -0.000000 0.000000 0.000000 -0.000000 0.000000 0.000000 12.528835 0.000000 0.000000 0.711642 0.000000 0.000000 -0.000000 0.000000 0.000000 0.000000 -90.000000 0.000000 -2.309062 0.000000 0.000000 2.309062 0.000000 0.000000 -0.000000 0.000000 0.000000 -0.000000 90.000000 0.000000 -2.309062 0.000000 0.000000 2.309062 0.000000 0.000000 8.520406 0.000000 0.000000 1.905762 0.000000 -0.000000 -4.658285 0.000000 0.000000 -0.000000 0.000000 0.000000 8.520406 0.000000 0.000000 1.905762 0.000000 -0.000000 -4.658285 0.000000 0.000000 -0.000000 0.000000
-128.470152 57.293550 109.212200 172.868062 -49.959365 1.820724 3.715213 27.740107 3.810095 0.526578 5.010993 0.529895 0.846811 7.894280 0.858906 2.848269 22.502419 2.879370 -5.152457 16.674157 6.629041 -11.752194 -3.914039 13.948008 7.807108 0.982867 -0.909507 15.348444 -22.044760 -18.211438 138.699036 -75.487869 -95.832096 22.867483 -14.950702 -38.075396 -9.861845 -0.742283 -2.378000 -0.177117 -16.603003 -3.577427 50.398098 -71.357901 -77.553677 -2.954790 8.641808 -5.827588 10.682615 -25.774026 -5.341262 -12.148082 63.995530 -8.287181 7.291620 28.003616 3.546148 -0.385820 -16.342683 2.828517 -8.256716 -23.444223 -1.789363 28.388982 60.324612 24.980010 -14.931385 11.155983 -4.984170 -0.001544 -0.074328 -0.022220
-128.475558 57.297607 109.214384 172.933531 -49.977742 1.731021 3.689493 27.756025 3.854445 0.520768 5.016885 0.533810 0.844022 7.901254 0.864224 2.797470 22.524688 2.932278 -5.190513 16.807572 6.660709 -11.821153 -3.633019 14.028660 7.755364 0.945935 -0.980249 15.426386 -22.030873 -18.215294 138.787038 -75.636065 -95.933529 22.844481 -14.939565 -37.984909 -9.814231 -0.813081 -2.453288 -0.196764 -16.572939 -3.563488 50.355648 -71.349526 -77.500132 -2.919681 8.720182 -5.734185 10.626103 -25.734377 -5.293242 -12.191274 63.958792 -8.324095 7.274166 27.969354 3.580068 -0.361897 -16.301962 2.788262 -8.299692 -23.425697 -1.785043 28.356978 60.294870 24.990659 -14.904126 11.203031 -4.994609 -0.001179 -0.088643 -0.024455
-128.486034 57.302119 109.215421 172.976663 -49.994863 1.678468 3.640302 27.772723 3.867582 0.514565 5.023026 0.539993 0.834512 7.910207 0.873500 2.751239 22.531120 2.962760 -5.215409 16.947862 6.677314 -11.870593 -3.351130 14.084344 7.718982 0.913184 -1.055826 15.424188 -22.031813 -18.176161 138.910797 -75.749391 -95.987910 22.823810 -14.932060 -37.923329 -9.772016 -0.912286 -2.520220 -0.222123 -16.499889 -3.543269 49.852178 -71.338058 -77.007296 -2.855535 8.622566 -5.625139 10.631447 -25.682513 -5.272720 -12.320845 63.913110 -8.441617 7.319180 27.925188 3.650715 -0.369321 -16.258580 2.760317 -8.320262 -23.412702 -1.799183 28.365359 60.279468 25.028593 -14.889359 11.226630 -4.995407 -0.001973 -0.095748 -0.025030
-128.499025 57.305805 109.215736 173.011744 -50.001239 1.639842 3.556596 27.780626 3.858332 0.510112 5.027747 0.547199 0.815122 7.917022 0.887914 2.745497 22.530400 2.951435 -5.242434 17.093682 6.707237 -11.908370 -3.073279 14.127700 7.676169 0.875818 -1.108621 15.427447 -22.043865 -18.135927 138.952097 -75.815307 -95.939689 22.786889 -14.920661 -37.905455 -9.742866 -0.995965 -2.565712 -0.289198 -16.444993 -3.494942 49.659366 -71.334371 -76.768251 -2.809866 8.598704 -5.547116 10.637208 -25.652221 -5.264928 -12.387892 63.891655 -8.500847 7.326496 27.876077 3.703528 -0.367455 -16.216689 2.733453 -8.318439 -23.418817 -1.836682 28.397800 60.268211 25.103560 -14.877673 11.253571 -4.980537 -0.023777 -0.110423 -0.037665
-128.511711 57.309106 109.214412 173.032060 -50.000290 1.607506 3.520905 27.780696 3.862758 0.501732 5.027623 0.552717 0.838308 7.917496 0.883328 2.689721 22.533125 2.973796 -5.266010 17.236239 6.735039 -11.939572 -2.802405 14.166460 7.638039 0.826669 -1.155135 15.471121 -22.048457 -18.123407 138.949298 -75.897930 -95.887418 22.795626 -14.921943 -37.896076 -9.703617 -1.061004 -2.607492 -0.336174 -16.414090 -3.458401 49.555196 -71.350517 -76.635511 -2.757461 8.587188 -5.500703 10.625367 -25.643335 -5.245057 -12.428635 63.889104 -8.559224 7.338610 27.820739 3.762294 -0.366455 -16.176267 2.702759 -8.332218 -23.421672 -1.830409 28.410412 60.266222 25.120773 -14.881021 11.257494 -4.978499 -0.015050 -0.107428 -0.030546
-128.522603 57.313062 109.210121 173.059578 -50.000098 1.559758 3.495895 27.781541 3.881112 0.512132 5.025826 0.555276 0.802590 7.918822 0.892729 2.666022 22.534226 2.975580 -5.287602 17.374687 6.761163 -11.967152 -2.539629 14.201955 7.598760 0.766906 -1.197389 15.521864 -22.057549 -18.121267 138.944103 -76.001150 -95.844201 22.836040 -14.916870 -37.915804 -9.668207 -1.123470 -2.640384 -0.336729 -16.370066 -3.448662 49.467398 -71.405476 -76.574240 -2.697157 8.595590 -5.450329 10.646123 -25.618526 -5.235920 -12.482589 63.872924 -8.580740 7.340073 27.757169 3.808471 -0.359437 -16.124520 2.671032 -8.355955 -23.422293 -1.811311 28.429662 60.269190 25.139231 -14.883620 11.253343 -4.971661 -0.011380 -0.098071 -0.021045
-128.532099 57.318312 109.201961 173.110445 -50.004867 1.489893 3.472836 27.784965 3.912254 0.487834 5.028548 0.555250 0.792756 7.918560 0.896344 2.648187 22.530068 2.978197 -5.307852 17.506582 6.784175 -11.992251 -2.289636 14.232186 7.552979 0.700100 -1.238621 15.576732 -22.061884 -18.119291 138.926779 -76.068474 -95.782523 22.885534 -14.917648 -37.962417 -9.641060 -1.184184 -2.667029 -0.335107 -16.324606 -3.436061 49.436325 -71.478357 -76.581792 -2.773829 8.627793 -5.487561 10.709863 -25.571168 -5.245332 -12.587285 63.842717 -8.596505 7.347638 27.703018 3.842630 -0.356871 -16.082560 2.653331 -8.389795 -23.424570 -1.788676 28.453998 60.284043 25.164183 -14.886037 11.249723 -4.958018 -0.009991 -0.099206 -0.019319
